<?xml version="1.0" encoding="utf-8"?>
<!-- Generator: Adobe Illustrator 16.0.0, SVG Export Plug-In . SVG Version: 6.00 Build 0)  -->
<!DOCTYPE svg PUBLIC "-//W3C//DTD SVG 1.1//EN" "http://www.w3.org/Graphics/SVG/1.1/DTD/svg11.dtd">
<svg version="1.1" id="Layer_1" xmlns="http://www.w3.org/2000/svg" xmlns:xlink="http://www.w3.org/1999/xlink" x="0px" y="0px"
	 width="334px" height="46px" viewBox="0 0 334 46" enable-background="new 0 0 334 46" xml:space="preserve">
<line fill="none" stroke="#F15A24" stroke-miterlimit="10" x1="0" y1="25.5" x2="334" y2="25.5"/>
<g opacity="0.2">
	<defs>
		<circle id="SVGID_1_" opacity="0.2" cx="167.059" cy="22.833" r="22.301"/>
	</defs>
	<clipPath id="SVGID_2_">
		<use xlink:href="#SVGID_1_"  overflow="visible"/>
	</clipPath>
	
		<rect x="166.5" y="24.5" clip-path="url(#SVGID_2_)" fill="#4D4D4D" stroke="#000000" stroke-miterlimit="10" width="23" height="21"/>
	
		<rect x="144.5" y="0.5" clip-path="url(#SVGID_2_)" fill="#4D4D4D" stroke="#000000" stroke-miterlimit="10" width="22" height="24"/>
	<use xlink:href="#SVGID_1_"  overflow="visible" fill="none" stroke="#000000" stroke-miterlimit="10"/>
</g>
<g>
	<path fill="#333333" d="M127.105,7.352h4.093c1.864,0,3.218,0.266,4.061,0.796c0.842,0.53,1.264,1.375,1.264,2.532
		c0,0.785-0.185,1.43-0.554,1.933c-0.368,0.504-0.858,0.807-1.47,0.909v0.09c0.833,0.186,1.434,0.533,1.803,1.043
		s0.553,1.188,0.553,2.032c0,1.199-0.433,2.135-1.299,2.807c-0.867,0.671-2.043,1.007-3.53,1.007h-4.92V7.352z M129.894,12.559
		h1.619c0.756,0,1.303-0.116,1.642-0.351c0.339-0.233,0.508-0.62,0.508-1.16c0-0.504-0.185-0.864-0.553-1.084
		c-0.369-0.219-0.952-0.328-1.75-0.328h-1.466V12.559z M129.894,14.771v3.426h1.817c0.767,0,1.334-0.146,1.699-0.44
		c0.366-0.294,0.549-0.743,0.549-1.349c0-1.092-0.779-1.637-2.338-1.637H129.894z"/>
	<path fill="#333333" d="M143.93,10.257c0.372,0,0.681,0.026,0.927,0.081l-0.207,2.571c-0.222-0.06-0.492-0.09-0.81-0.09
		c-0.876,0-1.558,0.226-2.046,0.675c-0.489,0.449-0.733,1.079-0.733,1.889V20.5h-2.743V10.445h2.078l0.404,1.69h0.135
		c0.313-0.563,0.733-1.018,1.264-1.362C142.729,10.429,143.306,10.257,143.93,10.257z"/>
	<path fill="#333333" d="M145.512,7.847c0-0.894,0.497-1.341,1.492-1.341c0.996,0,1.493,0.447,1.493,1.341
		c0,0.426-0.124,0.757-0.373,0.993c-0.249,0.237-0.622,0.355-1.12,0.355C146.009,9.195,145.512,8.746,145.512,7.847z M148.371,20.5
		h-2.743V10.445h2.743V20.5z"/>
	<path fill="#333333" d="M159.449,20.5h-2.742v-5.873c0-0.725-0.129-1.27-0.387-1.632c-0.258-0.363-0.669-0.544-1.232-0.544
		c-0.768,0-1.322,0.256-1.664,0.769s-0.513,1.362-0.513,2.55v4.73h-2.743V10.445h2.096l0.369,1.286h0.152
		c0.306-0.485,0.728-0.853,1.264-1.102c0.537-0.249,1.146-0.373,1.83-0.373c1.17,0,2.057,0.316,2.662,0.948
		c0.605,0.633,0.908,1.546,0.908,2.738V20.5z"/>
	<path fill="#333333" d="M163.827,15.032l1.196-1.529l2.814-3.058h3.094l-3.993,4.362l4.236,5.692h-3.166l-2.896-4.074l-1.179,0.944
		v3.13h-2.743V6.506h2.743v6.242l-0.144,2.284H163.827z"/>
	<path fill="#333333" d="M180.756,20.5h-2.743v-5.873c0-0.725-0.121-1.27-0.364-1.632c-0.243-0.363-0.625-0.544-1.146-0.544
		c-0.701,0-1.211,0.258-1.529,0.773c-0.317,0.516-0.477,1.364-0.477,2.545v4.73h-2.743V10.445h2.096l0.369,1.286h0.152
		c0.271-0.462,0.66-0.823,1.17-1.084c0.509-0.261,1.094-0.391,1.753-0.391c1.505,0,2.524,0.491,3.059,1.475h0.242
		c0.27-0.468,0.667-0.83,1.191-1.088c0.525-0.258,1.117-0.387,1.776-0.387c1.14,0,2.001,0.292,2.586,0.877
		c0.584,0.584,0.877,1.521,0.877,2.81V20.5h-2.752v-5.873c0-0.725-0.122-1.27-0.364-1.632c-0.243-0.363-0.625-0.544-1.146-0.544
		c-0.672,0-1.174,0.239-1.507,0.719c-0.333,0.48-0.499,1.241-0.499,2.285V20.5z"/>
	<path fill="#333333" d="M195.133,20.5l-0.53-1.367h-0.072c-0.462,0.582-0.937,0.985-1.426,1.21
		c-0.488,0.225-1.125,0.337-1.911,0.337c-0.965,0-1.725-0.275-2.279-0.827s-0.832-1.337-0.832-2.356c0-1.067,0.373-1.854,1.12-2.36
		c0.746-0.507,1.872-0.787,3.377-0.841l1.744-0.055V13.8c0-1.02-0.521-1.528-1.564-1.528c-0.804,0-1.748,0.242-2.833,0.728
		l-0.908-1.853c1.157-0.605,2.439-0.908,3.849-0.908c1.35,0,2.384,0.294,3.104,0.882c0.719,0.588,1.079,1.48,1.079,2.68v6.7H195.133
		z M194.323,15.842l-1.061,0.035c-0.798,0.024-1.392,0.168-1.781,0.432c-0.39,0.265-0.585,0.666-0.585,1.206
		c0,0.773,0.444,1.16,1.331,1.16c0.636,0,1.144-0.184,1.524-0.549c0.381-0.366,0.571-0.852,0.571-1.457V15.842z"/>
	<path fill="#333333" d="M208.061,20.5h-2.742v-5.873c0-0.725-0.129-1.27-0.387-1.632c-0.258-0.363-0.669-0.544-1.232-0.544
		c-0.768,0-1.322,0.256-1.664,0.769s-0.513,1.362-0.513,2.55v4.73h-2.743V10.445h2.096l0.369,1.286h0.152
		c0.306-0.485,0.728-0.853,1.264-1.102c0.537-0.249,1.146-0.373,1.83-0.373c1.17,0,2.057,0.316,2.662,0.948
		c0.605,0.633,0.908,1.546,0.908,2.738V20.5z"/>
</g>
<g>
	<path fill="#333333" d="M115.719,33.155c0,0.58-0.208,1.037-0.626,1.371c-0.417,0.334-0.998,0.501-1.742,0.501
		c-0.686,0-1.292-0.129-1.819-0.387v-1.266c0.434,0.193,0.8,0.33,1.101,0.408c0.3,0.08,0.575,0.119,0.824,0.119
		c0.299,0,0.528-0.057,0.688-0.172c0.16-0.113,0.24-0.283,0.24-0.51c0-0.125-0.035-0.237-0.105-0.336
		c-0.07-0.098-0.173-0.192-0.31-0.283c-0.136-0.091-0.414-0.235-0.833-0.436c-0.393-0.184-0.687-0.361-0.883-0.531
		s-0.353-0.367-0.47-0.594c-0.117-0.225-0.176-0.488-0.176-0.791c0-0.567,0.192-1.015,0.578-1.34s0.918-0.488,1.598-0.488
		c0.334,0,0.652,0.04,0.956,0.119c0.303,0.079,0.62,0.19,0.951,0.334l-0.439,1.059c-0.343-0.141-0.626-0.238-0.851-0.294
		c-0.224-0.056-0.444-0.083-0.661-0.083c-0.258,0-0.456,0.06-0.593,0.18s-0.207,0.277-0.207,0.471c0,0.12,0.028,0.225,0.083,0.313
		c0.056,0.09,0.144,0.176,0.266,0.26c0.121,0.083,0.409,0.233,0.863,0.45c0.601,0.287,1.012,0.575,1.235,0.863
		C115.608,32.383,115.719,32.736,115.719,33.155z"/>
	<path fill="#333333" d="M120.046,34.939l-0.18-0.629h-0.07c-0.144,0.229-0.347,0.405-0.611,0.53
		c-0.264,0.124-0.564,0.187-0.901,0.187c-0.577,0-1.012-0.154-1.305-0.464c-0.293-0.309-0.439-0.753-0.439-1.333v-3.204h1.34v2.87
		c0,0.354,0.063,0.62,0.189,0.797c0.126,0.178,0.327,0.266,0.602,0.266c0.375,0,0.646-0.125,0.813-0.375
		c0.167-0.251,0.25-0.666,0.25-1.246v-2.312h1.34v4.913H120.046z"/>
	<path fill="#333333" d="M124.965,29.934c0.182,0,0.333,0.014,0.453,0.04l-0.101,1.257c-0.108-0.029-0.24-0.044-0.396-0.044
		c-0.428,0-0.761,0.11-1,0.329c-0.239,0.221-0.358,0.527-0.358,0.924v2.5h-1.34v-4.913h1.015l0.198,0.826h0.066
		c0.152-0.275,0.358-0.497,0.618-0.666C124.378,30.019,124.66,29.934,124.965,29.934z"/>
	<path fill="#333333" d="M127.567,34.939l-1.872-4.913h1.402l0.949,2.8c0.097,0.305,0.16,0.64,0.189,1.006h0.035
		c0.018-0.331,0.083-0.666,0.198-1.006l0.945-2.8h1.402l-1.872,4.913H127.567z"/>
	<path fill="#333333" d="M133.442,35.027c-0.791,0-1.409-0.218-1.854-0.654s-0.668-1.055-0.668-1.855
		c0-0.822,0.206-1.459,0.617-1.909c0.412-0.449,0.981-0.675,1.708-0.675c0.694,0,1.235,0.198,1.622,0.594s0.58,0.942,0.58,1.639
		v0.65h-3.168c0.015,0.382,0.127,0.679,0.338,0.893s0.507,0.32,0.888,0.32c0.296,0,0.576-0.03,0.839-0.092s0.539-0.159,0.826-0.295
		v1.037c-0.234,0.118-0.485,0.205-0.751,0.262C134.151,34.999,133.826,35.027,133.442,35.027z M133.253,30.888
		c-0.284,0-0.507,0.09-0.668,0.271c-0.161,0.18-0.253,0.436-0.277,0.767h1.881c-0.006-0.331-0.092-0.587-0.259-0.767
		C133.763,30.978,133.538,30.888,133.253,30.888z"/>
	<path fill="#333333" d="M135.567,30.026h1.468l0.927,2.765c0.079,0.24,0.133,0.524,0.163,0.852h0.026
		c0.032-0.301,0.095-0.585,0.189-0.852l0.91-2.765h1.437l-2.079,5.542c-0.19,0.512-0.462,0.896-0.815,1.15
		c-0.353,0.256-0.765,0.383-1.237,0.383c-0.231,0-0.458-0.025-0.681-0.074v-1.064c0.161,0.038,0.337,0.058,0.527,0.058
		c0.237,0,0.444-0.072,0.622-0.218c0.177-0.145,0.315-0.364,0.415-0.656l0.079-0.242L135.567,30.026z"/>
	<path fill="#333333" d="M141.179,28.756c0-0.436,0.243-0.654,0.729-0.654c0.487,0,0.73,0.219,0.73,0.654
		c0,0.209-0.062,0.37-0.183,0.486c-0.122,0.115-0.304,0.174-0.547,0.174C141.422,29.416,141.179,29.195,141.179,28.756z
		 M142.577,34.939h-1.341v-4.913h1.341V34.939z"/>
	<path fill="#333333" d="M148.266,34.939h-1.341V32.07c0-0.354-0.063-0.621-0.188-0.798c-0.126-0.178-0.327-0.267-0.603-0.267
		c-0.375,0-0.646,0.126-0.813,0.376c-0.167,0.251-0.251,0.666-0.251,1.246v2.312h-1.34v-4.913h1.023l0.181,0.628h0.074
		c0.149-0.236,0.355-0.416,0.618-0.538c0.262-0.121,0.56-0.183,0.894-0.183c0.571,0,1.005,0.155,1.301,0.464
		c0.296,0.31,0.444,0.756,0.444,1.339V34.939z"/>
	<path fill="#333333" d="M153.729,34.948c0,0.706-0.206,1.241-0.617,1.606c-0.412,0.364-1.024,0.547-1.839,0.547
		c-0.718,0-1.33-0.097-1.837-0.29v-1.072c0.595,0.252,1.233,0.378,1.916,0.378c0.688,0,1.032-0.372,1.032-1.116v-0.097l0.04-0.602
		h-0.04c-0.313,0.482-0.777,0.725-1.393,0.725c-0.589,0-1.046-0.227-1.369-0.682c-0.324-0.453-0.485-1.072-0.485-1.854
		c0-0.806,0.167-1.434,0.503-1.884c0.335-0.449,0.798-0.675,1.387-0.675c0.604,0,1.078,0.241,1.424,0.721h0.035l0.109-0.628h1.134
		V34.948z M151.47,33.977c0.36,0,0.618-0.103,0.773-0.31c0.155-0.206,0.233-0.541,0.233-1.004V32.5c0-0.523-0.081-0.901-0.244-1.131
		c-0.162-0.23-0.424-0.346-0.784-0.346c-0.63,0-0.945,0.496-0.945,1.486c0,0.492,0.078,0.859,0.235,1.103
		C150.895,33.855,151.139,33.977,151.47,33.977z"/>
	<path fill="#333333" d="M162.885,34.939h-1.656l-0.506-0.496c-0.559,0.39-1.191,0.584-1.897,0.584
		c-0.715,0-1.282-0.164-1.701-0.492s-0.628-0.771-0.628-1.332c0-0.4,0.088-0.743,0.266-1.025c0.177-0.283,0.481-0.547,0.912-0.793
		c-0.22-0.252-0.38-0.493-0.479-0.724c-0.1-0.229-0.149-0.481-0.149-0.753c0-0.445,0.171-0.805,0.513-1.077
		c0.341-0.272,0.797-0.409,1.368-0.409c0.545,0,0.98,0.127,1.307,0.381c0.328,0.253,0.49,0.593,0.49,1.018
		c0,0.349-0.102,0.667-0.303,0.955c-0.203,0.289-0.529,0.563-0.979,0.824l1.247,1.217c0.209-0.342,0.389-0.783,0.541-1.322h1.396
		c-0.105,0.396-0.25,0.781-0.434,1.158c-0.186,0.376-0.395,0.709-0.629,1L162.885,34.939z M157.906,33.076
		c0,0.252,0.095,0.453,0.284,0.602c0.188,0.15,0.431,0.225,0.727,0.225c0.369,0,0.702-0.089,0.997-0.268l-1.458-1.451
		c-0.17,0.13-0.305,0.264-0.402,0.404C157.955,32.729,157.906,32.892,157.906,33.076z M159.484,29.961
		c0-0.155-0.053-0.278-0.158-0.367c-0.105-0.09-0.242-0.135-0.409-0.135c-0.196,0-0.351,0.048-0.463,0.141
		c-0.113,0.095-0.17,0.228-0.17,0.4c0,0.258,0.14,0.542,0.418,0.853c0.252-0.141,0.445-0.279,0.58-0.415
		C159.417,30.301,159.484,30.143,159.484,29.961z"/>
	<path fill="#333333" d="M168.122,34.939l-1.547-5.041h-0.04c0.056,1.026,0.083,1.71,0.083,2.053v2.988h-1.217v-6.425h1.854
		l1.521,4.913h0.026l1.612-4.913h1.855v6.425H171v-3.041c0-0.144,0.002-0.309,0.007-0.496c0.004-0.188,0.023-0.686,0.059-1.494
		h-0.039l-1.656,5.031H168.122z"/>
	<path fill="#333333" d="M176.674,34.939l-0.259-0.668h-0.035c-0.227,0.284-0.458,0.481-0.697,0.591
		c-0.238,0.11-0.55,0.165-0.934,0.165c-0.472,0-0.843-0.135-1.114-0.404c-0.271-0.27-0.406-0.653-0.406-1.151
		c0-0.521,0.183-0.906,0.547-1.153c0.365-0.248,0.915-0.385,1.65-0.411l0.853-0.026v-0.215c0-0.498-0.255-0.748-0.765-0.748
		c-0.393,0-0.854,0.119-1.384,0.356l-0.444-0.905c0.565-0.296,1.192-0.443,1.881-0.443c0.659,0,1.165,0.144,1.517,0.43
		c0.352,0.288,0.527,0.725,0.527,1.311v3.273H176.674z M176.278,32.663l-0.519,0.018c-0.39,0.012-0.68,0.082-0.87,0.211
		s-0.285,0.325-0.285,0.589c0,0.378,0.216,0.566,0.65,0.566c0.31,0,0.559-0.089,0.744-0.268c0.187-0.179,0.279-0.416,0.279-0.712
		V32.663z"/>
	<path fill="#333333" d="M181.433,35.027c-0.577,0-1.03-0.209-1.358-0.629h-0.07c0.047,0.411,0.07,0.647,0.07,0.713v1.99h-1.34
		v-7.075h1.09l0.189,0.638h0.061c0.313-0.486,0.778-0.73,1.394-0.73c0.58,0,1.034,0.225,1.362,0.673s0.492,1.071,0.492,1.868
		c0,0.524-0.077,0.979-0.23,1.366c-0.154,0.387-0.373,0.681-0.657,0.884C182.15,34.926,181.816,35.027,181.433,35.027z
		 M181.037,31.006c-0.331,0-0.573,0.103-0.725,0.306c-0.153,0.204-0.232,0.54-0.238,1.009v0.145c0,0.527,0.079,0.906,0.235,1.135
		c0.157,0.229,0.405,0.342,0.745,0.342c0.601,0,0.9-0.494,0.9-1.484c0-0.484-0.073-0.847-0.222-1.088
		C181.586,31.127,181.354,31.006,181.037,31.006z"/>
	<path fill="#333333" d="M186.923,35.027c-0.577,0-1.03-0.209-1.358-0.629h-0.07c0.047,0.411,0.07,0.647,0.07,0.713v1.99h-1.34
		v-7.075h1.09l0.189,0.638h0.061c0.313-0.486,0.778-0.73,1.394-0.73c0.58,0,1.034,0.225,1.362,0.673s0.492,1.071,0.492,1.868
		c0,0.524-0.077,0.979-0.23,1.366c-0.154,0.387-0.373,0.681-0.657,0.884C187.641,34.926,187.307,35.027,186.923,35.027z
		 M186.527,31.006c-0.331,0-0.573,0.103-0.725,0.306c-0.153,0.204-0.232,0.54-0.238,1.009v0.145c0,0.527,0.079,0.906,0.235,1.135
		c0.157,0.229,0.405,0.342,0.745,0.342c0.601,0,0.9-0.494,0.9-1.484c0-0.484-0.073-0.847-0.222-1.088
		C187.076,31.127,186.844,31.006,186.527,31.006z"/>
	<path fill="#333333" d="M189.65,28.756c0-0.436,0.242-0.654,0.729-0.654s0.73,0.219,0.73,0.654c0,0.209-0.062,0.37-0.183,0.486
		c-0.122,0.115-0.305,0.174-0.548,0.174C189.893,29.416,189.65,29.195,189.65,28.756z M191.047,34.939h-1.34v-4.913h1.34V34.939z"/>
	<path fill="#333333" d="M196.736,34.939h-1.34V32.07c0-0.354-0.063-0.621-0.189-0.798c-0.126-0.178-0.327-0.267-0.602-0.267
		c-0.376,0-0.646,0.126-0.813,0.376c-0.167,0.251-0.251,0.666-0.251,1.246v2.312h-1.34v-4.913h1.023l0.181,0.628h0.075
		c0.148-0.236,0.354-0.416,0.617-0.538c0.262-0.121,0.561-0.183,0.895-0.183c0.57,0,1.004,0.155,1.301,0.464
		c0.295,0.31,0.443,0.756,0.443,1.339V34.939z"/>
	<path fill="#333333" d="M202.199,34.948c0,0.706-0.205,1.241-0.617,1.606c-0.411,0.364-1.024,0.547-1.839,0.547
		c-0.718,0-1.33-0.097-1.837-0.29v-1.072c0.595,0.252,1.233,0.378,1.916,0.378c0.688,0,1.033-0.372,1.033-1.116v-0.097l0.039-0.602
		h-0.039c-0.314,0.482-0.778,0.725-1.394,0.725c-0.589,0-1.045-0.227-1.369-0.682c-0.323-0.453-0.485-1.072-0.485-1.854
		c0-0.806,0.168-1.434,0.503-1.884c0.336-0.449,0.798-0.675,1.387-0.675c0.604,0,1.078,0.241,1.424,0.721h0.035l0.11-0.628h1.133
		V34.948z M199.941,33.977c0.359,0,0.617-0.103,0.773-0.31c0.154-0.206,0.232-0.541,0.232-1.004V32.5
		c0-0.523-0.081-0.901-0.244-1.131c-0.162-0.23-0.424-0.346-0.784-0.346c-0.63,0-0.944,0.496-0.944,1.486
		c0,0.492,0.078,0.859,0.234,1.103C199.366,33.855,199.609,33.977,199.941,33.977z"/>
	<path fill="#333333" d="M204.775,33.994c-0.153,0.593-0.411,1.294-0.773,2.105h-0.967c0.189-0.779,0.338-1.515,0.443-2.206h1.23
		L204.775,33.994z"/>
	<path fill="#333333" d="M210.245,34.939h-2.923v-0.773l0.782-0.36v-4.157l-0.782-0.36v-0.773h2.923v0.773l-0.783,0.36v4.157
		l0.783,0.36V34.939z"/>
	<path fill="#333333" d="M215.557,34.939h-1.34V32.07c0-0.354-0.063-0.621-0.189-0.798c-0.126-0.178-0.327-0.267-0.602-0.267
		c-0.376,0-0.646,0.126-0.813,0.376c-0.167,0.251-0.251,0.666-0.251,1.246v2.312h-1.34v-4.913h1.023l0.181,0.628h0.075
		c0.148-0.236,0.354-0.416,0.617-0.538c0.262-0.121,0.561-0.183,0.895-0.183c0.57,0,1.004,0.155,1.301,0.464
		c0.295,0.31,0.443,0.756,0.443,1.339V34.939z"/>
	<path fill="#333333" d="M218.722,35.027c-1.529,0-2.294-0.84-2.294-2.518c0-0.836,0.208-1.474,0.624-1.914
		c0.416-0.441,1.012-0.662,1.788-0.662c0.568,0,1.078,0.112,1.529,0.334l-0.395,1.037c-0.211-0.084-0.408-0.154-0.59-0.208
		c-0.182-0.055-0.363-0.081-0.545-0.081c-0.697,0-1.045,0.495-1.045,1.484c0,0.962,0.348,1.441,1.045,1.441
		c0.258,0,0.497-0.034,0.717-0.103c0.22-0.069,0.439-0.177,0.659-0.323v1.146c-0.217,0.139-0.436,0.233-0.657,0.286
		C219.338,35.001,219.059,35.027,218.722,35.027z"/>
	<path fill="#333333" d="M221.12,34.311c0-0.246,0.066-0.432,0.198-0.558s0.323-0.188,0.575-0.188c0.243,0,0.432,0.064,0.565,0.193
		c0.133,0.129,0.2,0.313,0.2,0.553c0,0.232-0.068,0.414-0.203,0.548c-0.135,0.133-0.322,0.2-0.563,0.2
		c-0.246,0-0.437-0.065-0.57-0.196C221.188,34.732,221.12,34.549,221.12,34.311z"/>
</g>
<g>
</g>
<g>
</g>
<g>
</g>
<g>
</g>
<g>
</g>
<g>
</g>
<g>
</g>
<g>
</g>
<g>
</g>
<g>
</g>
<g>
</g>
<g>
</g>
<g>
</g>
<g>
</g>
<g>
</g>
</svg>
