<?xml version="1.0" encoding="utf-8"?>
<!-- Generator: Adobe Illustrator 16.0.0, SVG Export Plug-In . SVG Version: 6.00 Build 0)  -->
<!DOCTYPE svg PUBLIC "-//W3C//DTD SVG 1.1//EN" "http://www.w3.org/Graphics/SVG/1.1/DTD/svg11.dtd">
<svg version="1.1" xmlns="http://www.w3.org/2000/svg" xmlns:xlink="http://www.w3.org/1999/xlink" x="0px" y="0px" width="334px"
	 height="73.309px" viewBox="0 0 334 73.309" enable-background="new 0 0 334 73.309" xml:space="preserve">
<g id="Squares">
</g>
<g id="Mask">
	<line fill="none" stroke="#F15A24" stroke-miterlimit="10" x1="12" y1="40.5" x2="334" y2="40.5"/>
	<g>
		<defs>
			<circle id="SVGID_1_" cx="63.311" cy="39.328" r="28.938"/>
		</defs>
		<clipPath id="SVGID_2_">
			<use xlink:href="#SVGID_1_"  overflow="visible"/>
		</clipPath>
		
			<rect x="62.5" y="41.5" clip-path="url(#SVGID_2_)" fill="#4D4D4D" stroke="#000000" stroke-miterlimit="10" width="30" height="27"/>
		
			<rect x="34.5" y="10.5" clip-path="url(#SVGID_2_)" fill="#4D4D4D" stroke="#000000" stroke-miterlimit="10" width="28" height="31"/>
		<use xlink:href="#SVGID_1_"  overflow="visible" fill="none" stroke="#000000" stroke-miterlimit="10"/>
	</g>
	<g>
		<path fill="#333333" d="M113.108,14.66h6.665c3.037,0,5.242,0.432,6.614,1.297c1.372,0.863,2.058,2.238,2.058,4.123
			c0,1.279-0.3,2.329-0.901,3.149s-1.399,1.313-2.395,1.479v0.146c1.357,0.303,2.336,0.869,2.937,1.699s0.901,1.934,0.901,3.311
			c0,1.953-0.706,3.477-2.117,4.57s-3.328,1.641-5.75,1.641h-8.013V14.66z M117.649,23.142h2.637c1.23,0,2.122-0.19,2.673-0.571
			s0.828-1.011,0.828-1.89c0-0.82-0.3-1.408-0.901-1.765s-1.55-0.535-2.849-0.535h-2.388V23.142z M117.649,26.745v5.581h2.959
			c1.25,0,2.173-0.239,2.769-0.718s0.894-1.211,0.894-2.197c0-1.777-1.27-2.666-3.809-2.666H117.649z"/>
		<path fill="#333333" d="M140.389,19.392c0.605,0,1.108,0.044,1.509,0.132l-0.337,4.189c-0.361-0.098-0.801-0.146-1.318-0.146
			c-1.426,0-2.537,0.366-3.333,1.099s-1.194,1.758-1.194,3.076v8.335h-4.468V19.699h3.384l0.659,2.754h0.22
			c0.508-0.918,1.194-1.657,2.058-2.219S139.373,19.392,140.389,19.392z"/>
		<path fill="#333333" d="M142.845,15.466c0-1.455,0.811-2.183,2.432-2.183s2.432,0.728,2.432,2.183
			c0,0.693-0.203,1.233-0.608,1.618c-0.405,0.387-1.013,0.579-1.824,0.579C143.655,17.663,142.845,16.931,142.845,15.466z
			 M147.503,36.076h-4.468V19.699h4.468V36.076z"/>
		<path fill="#333333" d="M165.424,36.076h-4.468v-9.565c0-1.182-0.21-2.067-0.63-2.659c-0.42-0.59-1.089-0.886-2.007-0.886
			c-1.25,0-2.153,0.417-2.71,1.253c-0.557,0.834-0.835,2.219-0.835,4.152v7.705h-4.468V19.699h3.413l0.601,2.095h0.249
			c0.498-0.791,1.184-1.389,2.058-1.794s1.868-0.608,2.981-0.608c1.904,0,3.35,0.516,4.336,1.546s1.479,2.517,1.479,4.46V36.076z"/>
		<path fill="#333333" d="M172.431,27.17l1.948-2.49l4.585-4.98h5.04l-6.504,7.104l6.899,9.272h-5.156l-4.717-6.636l-1.919,1.538
			v5.098h-4.468V13.283h4.468v10.166l-0.234,3.721H172.431z"/>
		<path fill="#333333" d="M199.895,36.076h-4.469v-9.565c0-1.182-0.197-2.067-0.594-2.659c-0.395-0.59-1.018-0.886-1.867-0.886
			c-1.143,0-1.973,0.42-2.49,1.26s-0.775,2.222-0.775,4.146v7.705h-4.469V19.699h3.414l0.6,2.095h0.25
			c0.439-0.752,1.074-1.341,1.904-1.765c0.83-0.426,1.781-0.638,2.855-0.638c2.451,0,4.111,0.801,4.98,2.402h0.396
			c0.439-0.762,1.086-1.353,1.939-1.772c0.855-0.42,1.82-0.63,2.895-0.63c1.855,0,3.258,0.476,4.211,1.429
			c0.951,0.951,1.428,2.478,1.428,4.577v10.679h-4.482v-9.565c0-1.182-0.197-2.067-0.594-2.659c-0.395-0.59-1.018-0.886-1.867-0.886
			c-1.094,0-1.912,0.391-2.453,1.172c-0.543,0.781-0.813,2.021-0.813,3.721V36.076z"/>
		<path fill="#333333" d="M223.19,36.076l-0.864-2.227h-0.117c-0.752,0.947-1.526,1.604-2.321,1.971
			c-0.797,0.365-1.834,0.549-3.113,0.549c-1.572,0-2.811-0.449-3.713-1.348c-0.904-0.898-1.355-2.178-1.355-3.838
			c0-1.738,0.607-3.02,1.824-3.846c1.215-0.824,3.049-1.281,5.5-1.369l2.842-0.088v-0.718c0-1.66-0.85-2.49-2.549-2.49
			c-1.309,0-2.847,0.396-4.614,1.187l-1.479-3.018c1.885-0.986,3.975-1.479,6.27-1.479c2.197,0,3.882,0.479,5.054,1.436
			s1.758,2.412,1.758,4.365v10.913H223.19z M221.872,28.488l-1.729,0.059c-1.299,0.039-2.266,0.273-2.9,0.703
			s-0.952,1.084-0.952,1.963c0,1.26,0.723,1.89,2.168,1.89c1.035,0,1.862-0.298,2.483-0.894c0.619-0.596,0.93-1.387,0.93-2.373
			V28.488z"/>
		<path fill="#333333" d="M244.134,36.076h-4.468v-9.565c0-1.182-0.21-2.067-0.63-2.659c-0.42-0.59-1.089-0.886-2.007-0.886
			c-1.25,0-2.153,0.417-2.71,1.253c-0.557,0.834-0.835,2.219-0.835,4.152v7.705h-4.468V19.699h3.413l0.601,2.095h0.249
			c0.498-0.791,1.184-1.389,2.058-1.794s1.868-0.608,2.981-0.608c1.904,0,3.35,0.516,4.336,1.546s1.479,2.517,1.479,4.46V36.076z"/>
	</g>
	<g>
		<path fill="#333333" d="M121.275,55.014c0,1.065-0.383,1.904-1.149,2.518c-0.767,0.612-1.833,0.919-3.199,0.919
			c-1.258,0-2.372-0.236-3.339-0.71v-2.323c0.796,0.355,1.469,0.605,2.021,0.751c0.551,0.145,1.056,0.218,1.513,0.218
			c0.548,0,0.969-0.105,1.262-0.315c0.293-0.209,0.44-0.521,0.44-0.936c0-0.23-0.064-0.437-0.194-0.617
			c-0.129-0.18-0.318-0.354-0.569-0.52c-0.25-0.167-0.759-0.434-1.528-0.799c-0.721-0.339-1.261-0.664-1.622-0.977
			c-0.36-0.312-0.648-0.675-0.863-1.089c-0.215-0.414-0.323-0.897-0.323-1.452c0-1.043,0.354-1.863,1.061-2.46
			s1.685-0.896,2.932-0.896c0.613,0,1.198,0.072,1.755,0.218c0.556,0.146,1.139,0.35,1.746,0.613l-0.807,1.944
			c-0.629-0.259-1.149-0.438-1.561-0.541c-0.411-0.102-0.816-0.153-1.214-0.153c-0.473,0-0.836,0.11-1.089,0.331
			c-0.253,0.221-0.379,0.508-0.379,0.863c0,0.221,0.051,0.412,0.153,0.576s0.265,0.323,0.488,0.477s0.751,0.429,1.585,0.826
			c1.103,0.527,1.858,1.056,2.267,1.586C121.07,53.596,121.275,54.245,121.275,55.014z"/>
		<path fill="#333333" d="M128.961,58.289l-0.331-1.153h-0.129c-0.264,0.419-0.637,0.743-1.122,0.972
			c-0.484,0.229-1.035,0.343-1.653,0.343c-1.06,0-1.858-0.283-2.396-0.851s-0.807-1.384-0.807-2.448v-5.881h2.46v5.268
			c0,0.65,0.116,1.139,0.347,1.464c0.231,0.325,0.6,0.488,1.105,0.488c0.688,0,1.186-0.229,1.492-0.689s0.459-1.223,0.459-2.287
			v-4.243h2.46v9.019H128.961z"/>
		<path fill="#333333" d="M137.742,49.102c0.333,0,0.61,0.023,0.831,0.072l-0.186,2.307c-0.199-0.054-0.441-0.08-0.726-0.08
			c-0.785,0-1.397,0.201-1.835,0.604c-0.438,0.403-0.657,0.969-0.657,1.694v4.59h-2.46v-9.019h1.863l0.363,1.517h0.121
			c0.279-0.506,0.657-0.913,1.133-1.222C136.666,49.256,137.183,49.102,137.742,49.102z"/>
		<path fill="#333333" d="M142.312,58.289l-3.437-9.019h2.573l1.742,5.139c0.178,0.56,0.293,1.175,0.347,1.847h0.064
			c0.032-0.607,0.153-1.223,0.363-1.847l1.734-5.139h2.573l-3.436,9.019H142.312z"/>
		<path fill="#333333" d="M152.844,58.45c-1.452,0-2.587-0.4-3.404-1.202c-0.817-0.801-1.226-1.936-1.226-3.403
			c0-1.512,0.378-2.68,1.133-3.505c0.755-0.826,1.8-1.238,3.134-1.238c1.274,0,2.267,0.362,2.977,1.089
			c0.71,0.726,1.065,1.729,1.065,3.009v1.193h-5.816c0.027,0.699,0.234,1.245,0.621,1.638s0.93,0.589,1.629,0.589
			c0.543,0,1.057-0.057,1.541-0.169c0.484-0.113,0.99-0.293,1.517-0.541v1.904c-0.43,0.215-0.89,0.375-1.379,0.479
			C154.146,58.398,153.548,58.45,152.844,58.45z M152.497,50.852c-0.521,0-0.93,0.165-1.226,0.496s-0.465,0.8-0.508,1.407h3.453
			c-0.011-0.607-0.169-1.076-0.476-1.407C153.433,51.017,153.019,50.852,152.497,50.852z"/>
		<path fill="#333333" d="M156.499,49.271h2.694l1.702,5.074c0.145,0.44,0.245,0.963,0.298,1.564h0.048
			c0.059-0.554,0.175-1.075,0.347-1.564l1.67-5.074h2.638l-3.815,10.172c-0.35,0.941-0.848,1.646-1.496,2.113
			c-0.648,0.468-1.405,0.702-2.271,0.702c-0.425,0-0.842-0.046-1.25-0.137v-1.952c0.296,0.069,0.619,0.104,0.968,0.104
			c0.436,0,0.816-0.133,1.142-0.399c0.325-0.266,0.579-0.668,0.762-1.206l0.145-0.443L156.499,49.271z"/>
		<path fill="#333333" d="M166.565,46.939c0-0.802,0.446-1.202,1.339-1.202s1.339,0.4,1.339,1.202c0,0.382-0.111,0.679-0.334,0.892
			c-0.223,0.212-0.558,0.318-1.004,0.318C167.012,48.149,166.565,47.746,166.565,46.939z M169.13,58.289h-2.46v-9.019h2.46V58.289z"
			/>
		<path fill="#333333" d="M179.326,58.289h-2.46v-5.268c0-0.65-0.116-1.139-0.347-1.464c-0.231-0.325-0.6-0.488-1.105-0.488
			c-0.688,0-1.186,0.23-1.492,0.689c-0.307,0.46-0.46,1.223-0.46,2.287v4.243h-2.46v-9.019h1.88l0.331,1.153h0.137
			c0.274-0.436,0.652-0.765,1.133-0.988c0.481-0.223,1.028-0.334,1.642-0.334c1.048,0,1.844,0.283,2.388,0.851
			c0.543,0.567,0.814,1.387,0.814,2.456V58.289z"/>
		<path fill="#333333" d="M189.115,58.306c0,1.296-0.377,2.278-1.133,2.948c-0.756,0.669-1.881,1.004-3.377,1.004
			c-1.316,0-2.441-0.178-3.371-0.532v-1.969c1.092,0.463,2.264,0.694,3.518,0.694c1.264,0,1.895-0.684,1.895-2.049v-0.178
			l0.074-1.105h-0.074c-0.574,0.888-1.428,1.331-2.557,1.331c-1.08,0-1.918-0.416-2.513-1.25c-0.594-0.834-0.891-1.969-0.891-3.404
			c0-1.479,0.308-2.631,0.923-3.456c0.615-0.826,1.465-1.238,2.545-1.238c1.107,0,1.979,0.44,2.613,1.322h0.064l0.203-1.153h2.08
			V58.306z M184.969,56.522c0.662,0,1.135-0.189,1.42-0.568c0.285-0.38,0.428-0.994,0.428-1.844v-0.298
			c0-0.963-0.148-1.655-0.447-2.077c-0.299-0.423-0.779-0.634-1.439-0.634c-1.156,0-1.734,0.909-1.734,2.727
			c0,0.903,0.143,1.578,0.432,2.024C183.914,56.3,184.361,56.522,184.969,56.522z"/>
		<path fill="#333333" d="M205.924,58.289h-3.041l-0.928-0.911c-1.027,0.715-2.189,1.072-3.485,1.072
			c-1.312,0-2.353-0.301-3.121-0.903c-0.77-0.603-1.154-1.417-1.154-2.444c0-0.736,0.163-1.364,0.488-1.884
			c0.325-0.519,0.884-1.004,1.674-1.456c-0.403-0.462-0.696-0.904-0.879-1.326c-0.184-0.423-0.274-0.884-0.274-1.384
			c0-0.817,0.313-1.477,0.939-1.977c0.627-0.5,1.464-0.75,2.513-0.75c1.001,0,1.801,0.232,2.4,0.698
			c0.6,0.465,0.899,1.087,0.899,1.867c0,0.64-0.186,1.225-0.557,1.754c-0.371,0.53-0.971,1.034-1.799,1.513l2.291,2.234
			c0.382-0.629,0.712-1.438,0.992-2.428h2.564c-0.193,0.726-0.459,1.435-0.798,2.126c-0.339,0.69-0.724,1.303-1.154,1.835
			L205.924,58.289z M196.784,54.869c0,0.462,0.173,0.83,0.521,1.104c0.347,0.274,0.791,0.412,1.335,0.412
			c0.678,0,1.288-0.164,1.831-0.492l-2.679-2.662c-0.312,0.236-0.558,0.483-0.737,0.742
			C196.874,54.231,196.784,54.53,196.784,54.869z M199.68,49.149c0-0.285-0.097-0.51-0.29-0.674
			c-0.193-0.163-0.443-0.245-0.75-0.245c-0.36,0-0.645,0.086-0.852,0.258s-0.311,0.417-0.311,0.734c0,0.473,0.256,0.994,0.767,1.564
			c0.463-0.258,0.817-0.513,1.064-0.763C199.557,49.774,199.68,49.483,199.68,49.149z"/>
		<path fill="#333333" d="M215.536,58.289l-2.84-9.252h-0.072c0.103,1.882,0.153,3.138,0.153,3.767v5.485h-2.234V46.496h3.404
			l2.791,9.018h0.048l2.961-9.018h3.404v11.793h-2.332v-5.582c0-0.264,0.005-0.567,0.013-0.911c0.008-0.345,0.044-1.259,0.108-2.743
			h-0.072l-3.041,9.236H215.536z"/>
		<path fill="#333333" d="M230.976,58.289l-0.476-1.227h-0.064c-0.414,0.522-0.841,0.884-1.278,1.085
			c-0.438,0.202-1.01,0.303-1.715,0.303c-0.865,0-1.547-0.247-2.045-0.742c-0.497-0.494-0.746-1.199-0.746-2.113
			c0-0.957,0.335-1.663,1.005-2.117c0.669-0.454,1.679-0.706,3.028-0.755l1.565-0.048v-0.396c0-0.914-0.468-1.371-1.403-1.371
			c-0.721,0-1.568,0.218-2.541,0.653l-0.815-1.662c1.038-0.543,2.189-0.814,3.453-0.814c1.21,0,2.138,0.264,2.783,0.791
			c0.645,0.526,0.968,1.328,0.968,2.403v6.01H230.976z M230.25,54.11l-0.952,0.032c-0.715,0.021-1.247,0.15-1.597,0.388
			c-0.35,0.236-0.524,0.597-0.524,1.081c0,0.693,0.397,1.04,1.193,1.04c0.57,0,1.026-0.164,1.367-0.492
			c0.342-0.328,0.513-0.764,0.513-1.307V54.11z"/>
		<path fill="#333333" d="M239.462,58.45c-1.06,0-1.89-0.384-2.492-1.153h-0.129c0.086,0.753,0.129,1.188,0.129,1.307v3.654h-2.46
			V49.271h2l0.347,1.17h0.113c0.575-0.893,1.428-1.339,2.557-1.339c1.065,0,1.898,0.411,2.501,1.233
			c0.603,0.823,0.903,1.966,0.903,3.429c0,0.963-0.141,1.799-0.423,2.509s-0.685,1.25-1.206,1.621S240.167,58.45,239.462,58.45z
			 M238.736,51.069c-0.607,0-1.052,0.188-1.331,0.561c-0.279,0.374-0.425,0.991-0.436,1.852v0.266c0,0.969,0.144,1.662,0.432,2.082
			c0.287,0.419,0.743,0.629,1.367,0.629c1.103,0,1.653-0.909,1.653-2.727c0-0.888-0.136-1.553-0.407-1.996
			C239.743,51.291,239.317,51.069,238.736,51.069z"/>
		<path fill="#333333" d="M249.302,58.45c-1.06,0-1.89-0.384-2.492-1.153h-0.129c0.086,0.753,0.129,1.188,0.129,1.307v3.654h-2.46
			V49.271h2l0.347,1.17h0.113c0.575-0.893,1.428-1.339,2.557-1.339c1.065,0,1.898,0.411,2.501,1.233
			c0.603,0.823,0.903,1.966,0.903,3.429c0,0.963-0.141,1.799-0.423,2.509s-0.685,1.25-1.206,1.621S250.007,58.45,249.302,58.45z
			 M248.576,51.069c-0.607,0-1.052,0.188-1.331,0.561c-0.279,0.374-0.425,0.991-0.436,1.852v0.266c0,0.969,0.144,1.662,0.432,2.082
			c0.287,0.419,0.743,0.629,1.367,0.629c1.103,0,1.653-0.909,1.653-2.727c0-0.888-0.136-1.553-0.407-1.996
			C249.583,51.291,249.157,51.069,248.576,51.069z"/>
		<path fill="#333333" d="M254.066,46.939c0-0.802,0.446-1.202,1.339-1.202s1.34,0.4,1.34,1.202c0,0.382-0.112,0.679-0.335,0.892
			c-0.224,0.212-0.559,0.318-1.005,0.318C254.513,48.149,254.066,47.746,254.066,46.939z M256.632,58.289h-2.46v-9.019h2.46V58.289z
			"/>
		<path fill="#333333" d="M266.827,58.289h-2.46v-5.268c0-0.65-0.116-1.139-0.347-1.464c-0.231-0.325-0.6-0.488-1.105-0.488
			c-0.688,0-1.186,0.23-1.492,0.689c-0.307,0.46-0.46,1.223-0.46,2.287v4.243h-2.46v-9.019h1.879l0.331,1.153h0.137
			c0.274-0.436,0.652-0.765,1.134-0.988c0.481-0.223,1.028-0.334,1.642-0.334c1.049,0,1.845,0.283,2.388,0.851
			s0.814,1.387,0.814,2.456V58.289z"/>
		<path fill="#333333" d="M276.617,58.306c0,1.296-0.378,2.278-1.134,2.948c-0.755,0.669-1.881,1.004-3.376,1.004
			c-1.317,0-2.441-0.178-3.371-0.532v-1.969c1.091,0.463,2.264,0.694,3.517,0.694c1.264,0,1.896-0.684,1.896-2.049v-0.178
			l0.073-1.105h-0.073c-0.575,0.888-1.428,1.331-2.557,1.331c-1.081,0-1.919-0.416-2.513-1.25c-0.595-0.834-0.892-1.969-0.892-3.404
			c0-1.479,0.308-2.631,0.924-3.456c0.615-0.826,1.464-1.238,2.545-1.238c1.107,0,1.979,0.44,2.613,1.322h0.064l0.202-1.153h2.081
			V58.306z M272.471,56.522c0.661,0,1.135-0.189,1.42-0.568c0.285-0.38,0.428-0.994,0.428-1.844v-0.298
			c0-0.963-0.149-1.655-0.448-2.077c-0.298-0.423-0.778-0.634-1.439-0.634c-1.156,0-1.734,0.909-1.734,2.727
			c0,0.903,0.144,1.578,0.432,2.024C271.415,56.3,271.863,56.522,272.471,56.522z"/>
		<path fill="#333333" d="M281.098,56.555c-0.279,1.086-0.753,2.374-1.419,3.864h-1.775c0.35-1.431,0.621-2.78,0.815-4.05h2.259
			L281.098,56.555z"/>
		<path fill="#333333" d="M291.138,58.289h-5.364v-1.42l1.436-0.661v-7.631l-1.436-0.662v-1.419h5.364v1.419l-1.436,0.662v7.631
			l1.436,0.661V58.289z"/>
		<path fill="#333333" d="M300.633,58.289h-2.46v-5.268c0-0.65-0.116-1.139-0.347-1.464c-0.231-0.325-0.6-0.488-1.105-0.488
			c-0.688,0-1.186,0.23-1.492,0.689c-0.307,0.46-0.46,1.223-0.46,2.287v4.243h-2.46v-9.019h1.879l0.331,1.153h0.137
			c0.274-0.436,0.652-0.765,1.134-0.988c0.481-0.223,1.028-0.334,1.642-0.334c1.049,0,1.845,0.283,2.388,0.851
			s0.814,1.387,0.814,2.456V58.289z"/>
		<path fill="#333333" d="M306.204,58.45c-2.808,0-4.211-1.54-4.211-4.622c0-1.532,0.382-2.703,1.146-3.513s1.857-1.214,3.283-1.214
			c1.043,0,1.979,0.204,2.807,0.612l-0.726,1.904c-0.388-0.156-0.748-0.284-1.081-0.384c-0.333-0.099-0.667-0.148-1-0.148
			c-1.28,0-1.92,0.908-1.92,2.727c0,1.764,0.64,2.646,1.92,2.646c0.473,0,0.911-0.063,1.314-0.189
			c0.403-0.127,0.807-0.324,1.21-0.593v2.105c-0.397,0.253-0.8,0.427-1.206,0.524C307.334,58.402,306.822,58.45,306.204,58.45z"/>
		<path fill="#333333" d="M310.37,57.136c0-0.452,0.121-0.793,0.363-1.024s0.595-0.347,1.057-0.347c0.446,0,0.792,0.118,1.037,0.354
			c0.244,0.236,0.367,0.575,0.367,1.017c0,0.425-0.124,0.76-0.371,1.004c-0.248,0.245-0.592,0.367-1.033,0.367
			c-0.451,0-0.801-0.12-1.049-0.359C310.494,57.908,310.37,57.571,310.37,57.136z"/>
	</g>
	<g>
		<path fill="#4D4D4D" d="M116.123,71.307h-0.903v-6.348h-2.231v-0.791h5.352v0.791h-2.217V71.307z"/>
		<path fill="#4D4D4D" d="M122.793,71.307v-3.428c0-0.437-0.097-0.761-0.291-0.975c-0.194-0.213-0.497-0.319-0.911-0.319
			c-0.543,0-0.941,0.151-1.194,0.454s-0.378,0.803-0.378,1.499v2.769h-0.879v-7.598h0.879v2.227c0,0.293-0.016,0.544-0.049,0.752
			h0.059c0.16-0.261,0.386-0.464,0.679-0.61s0.624-0.22,0.991-0.22c0.651,0,1.141,0.155,1.47,0.467
			c0.329,0.311,0.493,0.808,0.493,1.491v3.491H122.793z"/>
		<path fill="#4D4D4D" d="M127.329,71.404c-0.804,0-1.435-0.243-1.892-0.73c-0.458-0.486-0.686-1.156-0.686-2.009
			c0-0.859,0.213-1.544,0.64-2.054c0.426-0.509,1.002-0.764,1.729-0.764c0.674,0,1.211,0.217,1.611,0.652
			c0.4,0.434,0.601,1.022,0.601,1.765v0.532h-3.672c0.016,0.608,0.171,1.071,0.464,1.387s0.708,0.474,1.245,0.474
			c0.287,0,0.558-0.025,0.815-0.075c0.257-0.051,0.558-0.149,0.903-0.296v0.771c-0.296,0.127-0.575,0.217-0.835,0.269
			S127.684,71.404,127.329,71.404z M127.109,66.565c-0.42,0-0.752,0.135-0.996,0.405s-0.389,0.646-0.435,1.128h2.729
			c-0.006-0.501-0.122-0.882-0.347-1.143S127.52,66.565,127.109,66.565z"/>
		<path fill="#4D4D4D" d="M132.708,64.168h2.036c0.957,0,1.648,0.143,2.073,0.428c0.425,0.284,0.637,0.731,0.637,1.34
			c0,0.423-0.116,0.772-0.347,1.047c-0.231,0.275-0.568,0.454-1.011,0.535v0.049c0.55,0.095,0.955,0.285,1.213,0.571
			s0.388,0.666,0.388,1.138c0,0.638-0.218,1.136-0.654,1.494s-1.045,0.537-1.826,0.537h-2.51V64.168z M133.607,67.205h1.318
			c0.56,0,0.967-0.09,1.221-0.269s0.381-0.479,0.381-0.898c0-0.391-0.139-0.672-0.417-0.845s-0.719-0.259-1.321-0.259h-1.182V67.205
			z M133.607,67.957v2.588h1.44c0.573,0,0.998-0.11,1.274-0.332s0.415-0.557,0.415-1.006c0-0.427-0.146-0.741-0.439-0.945
			c-0.293-0.203-0.732-0.305-1.318-0.305H133.607z"/>
		<path fill="#4D4D4D" d="M141.139,71.404c-0.804,0-1.435-0.243-1.892-0.73c-0.458-0.486-0.686-1.156-0.686-2.009
			c0-0.859,0.213-1.544,0.64-2.054c0.426-0.509,1.002-0.764,1.729-0.764c0.674,0,1.211,0.217,1.611,0.652
			c0.4,0.434,0.601,1.022,0.601,1.765v0.532h-3.672c0.016,0.608,0.171,1.071,0.464,1.387s0.708,0.474,1.245,0.474
			c0.287,0,0.558-0.025,0.815-0.075c0.257-0.051,0.558-0.149,0.903-0.296v0.771c-0.296,0.127-0.575,0.217-0.835,0.269
			S141.494,71.404,141.139,71.404z M140.919,66.565c-0.42,0-0.752,0.135-0.996,0.405s-0.389,0.646-0.435,1.128h2.729
			c-0.006-0.501-0.122-0.882-0.347-1.143S141.329,66.565,140.919,66.565z"/>
		<path fill="#4D4D4D" d="M147.897,71.307v-3.428c0-0.437-0.097-0.761-0.291-0.975c-0.194-0.213-0.497-0.319-0.911-0.319
			c-0.55,0-0.95,0.152-1.199,0.456c-0.249,0.305-0.374,0.801-0.374,1.487v2.778h-0.879v-5.361h0.708l0.132,0.732h0.049
			c0.166-0.264,0.399-0.468,0.698-0.613c0.299-0.145,0.63-0.217,0.991-0.217c0.658,0,1.146,0.159,1.465,0.479
			s0.479,0.815,0.479,1.489v3.491H147.897z"/>
		<path fill="#4D4D4D" d="M152.301,71.404c-0.771,0-1.372-0.236-1.802-0.711c-0.43-0.473-0.645-1.152-0.645-2.038
			c0-0.898,0.217-1.591,0.652-2.077c0.435-0.487,1.054-0.73,1.858-0.73c0.26,0,0.519,0.027,0.774,0.08
			c0.255,0.055,0.466,0.123,0.632,0.208l-0.269,0.732c-0.453-0.169-0.838-0.254-1.157-0.254c-0.541,0-0.939,0.17-1.196,0.511
			c-0.257,0.34-0.386,0.847-0.386,1.521c0,0.647,0.128,1.144,0.386,1.487c0.257,0.343,0.638,0.515,1.143,0.515
			c0.472,0,0.936-0.104,1.392-0.313v0.781C153.312,71.309,152.851,71.404,152.301,71.404z"/>
		<path fill="#4D4D4D" d="M158.309,71.307v-3.428c0-0.437-0.097-0.761-0.291-0.975c-0.194-0.213-0.497-0.319-0.911-0.319
			c-0.543,0-0.941,0.151-1.194,0.454s-0.378,0.803-0.378,1.499v2.769h-0.879v-7.598h0.879v2.227c0,0.293-0.016,0.544-0.049,0.752
			h0.059c0.16-0.261,0.386-0.464,0.679-0.61s0.624-0.22,0.991-0.22c0.651,0,1.141,0.155,1.47,0.467
			c0.329,0.311,0.493,0.808,0.493,1.491v3.491H158.309z"/>
		<path fill="#4D4D4D" d="M167.363,71.307v-3.452c0-0.847-0.363-1.27-1.089-1.27c-0.498,0-0.864,0.145-1.099,0.435
			s-0.352,0.732-0.352,1.328v2.959h-0.874v-3.452c0-0.423-0.089-0.74-0.266-0.952s-0.455-0.317-0.833-0.317
			c-0.495,0-0.857,0.151-1.086,0.454s-0.344,0.799-0.344,1.489v2.778h-0.879v-5.361h0.708l0.132,0.732h0.049
			c0.153-0.261,0.369-0.464,0.647-0.61s0.59-0.22,0.935-0.22c0.84,0,1.387,0.3,1.641,0.898h0.049
			c0.172-0.286,0.408-0.508,0.706-0.664s0.636-0.234,1.013-0.234c0.605,0,1.059,0.156,1.36,0.469s0.452,0.813,0.452,1.499v3.491
			H167.363z"/>
		<path fill="#4D4D4D" d="M172.868,71.307l-0.171-0.762h-0.039c-0.267,0.335-0.533,0.563-0.798,0.682
			c-0.265,0.118-0.6,0.178-1.003,0.178c-0.527,0-0.941-0.139-1.24-0.415s-0.449-0.667-0.449-1.172c0-1.087,0.858-1.657,2.573-1.709
			l0.908-0.034v-0.317c0-0.407-0.088-0.707-0.264-0.901c-0.176-0.193-0.458-0.29-0.845-0.29c-0.283,0-0.551,0.042-0.803,0.127
			s-0.489,0.179-0.71,0.283l-0.269-0.659c0.27-0.144,0.565-0.256,0.884-0.337s0.635-0.122,0.947-0.122
			c0.648,0,1.129,0.144,1.445,0.43s0.474,0.742,0.474,1.367v3.652H172.868z M171.057,70.696c0.492,0,0.878-0.133,1.16-0.397
			c0.282-0.266,0.422-0.643,0.422-1.131v-0.483l-0.791,0.034c-0.615,0.022-1.063,0.12-1.345,0.293s-0.422,0.444-0.422,0.815
			c0,0.28,0.085,0.495,0.256,0.645S170.748,70.696,171.057,70.696z"/>
		<path fill="#4D4D4D" d="M177.369,65.848c0.238,0,0.448,0.02,0.63,0.059l-0.107,0.811c-0.199-0.046-0.392-0.068-0.581-0.068
			c-0.283,0-0.546,0.078-0.789,0.234s-0.432,0.372-0.569,0.646c-0.137,0.275-0.205,0.581-0.205,0.916v2.861h-0.879v-5.361h0.723
			l0.098,0.981h0.039c0.205-0.354,0.448-0.623,0.728-0.806S177.041,65.848,177.369,65.848z"/>
		<path fill="#4D4D4D" d="M179.659,68.548l0.298-0.381l0.342-0.41l1.713-1.812h1.025l-2.168,2.29l2.32,3.071h-1.061l-1.859-2.5
			l-0.611,0.532v1.968h-0.869v-7.598h0.869v3.97l-0.039,0.869H179.659z"/>
		<path fill="#4D4D4D" d="M185.961,64.495c0-0.195,0.05-0.337,0.148-0.425c0.1-0.088,0.223-0.132,0.369-0.132
			c0.137,0,0.256,0.044,0.359,0.132c0.102,0.088,0.153,0.229,0.153,0.425c0,0.192-0.052,0.334-0.153,0.425
			c-0.104,0.091-0.223,0.137-0.359,0.137c-0.146,0-0.27-0.046-0.369-0.137C186.011,64.829,185.961,64.688,185.961,64.495z
			 M186.908,71.307h-0.879v-5.361h0.879V71.307z"/>
		<path fill="#4D4D4D" d="M191.951,71.307v-3.428c0-0.437-0.097-0.761-0.291-0.975c-0.193-0.213-0.497-0.319-0.91-0.319
			c-0.55,0-0.949,0.152-1.199,0.456c-0.248,0.305-0.373,0.801-0.373,1.487v2.778h-0.879v-5.361h0.708l0.132,0.732h0.049
			c0.166-0.264,0.398-0.468,0.698-0.613c0.3-0.145,0.63-0.217,0.991-0.217c0.657,0,1.146,0.159,1.465,0.479s0.479,0.815,0.479,1.489
			v3.491H191.951z"/>
		<path fill="#4D4D4D" d="M202.73,67.728c0,0.901-0.181,1.653-0.542,2.256s-0.874,1.018-1.538,1.245l1.709,1.777h-1.289
			l-1.382-1.611l-0.249,0.01c-1.052,0-1.864-0.321-2.438-0.965c-0.575-0.643-0.862-1.55-0.862-2.722
			c0-1.162,0.286-2.063,0.856-2.702c0.572-0.641,1.39-0.96,2.454-0.96c1.035,0,1.841,0.325,2.417,0.974
			C202.442,65.68,202.73,66.578,202.73,67.728z M197.086,67.728c0,0.944,0.2,1.663,0.601,2.158s0.984,0.742,1.753,0.742
			c0.765,0,1.346-0.244,1.743-0.732s0.596-1.211,0.596-2.168c0-0.954-0.197-1.673-0.591-2.155c-0.394-0.484-0.974-0.726-1.738-0.726
			c-0.774,0-1.362,0.245-1.763,0.735C197.286,66.071,197.086,66.787,197.086,67.728z"/>
		<path fill="#4D4D4D" d="M204.788,65.945v3.452c0,0.433,0.097,0.755,0.291,0.964c0.193,0.211,0.493,0.315,0.9,0.315
			c0.55,0,0.95-0.153,1.201-0.459s0.376-0.799,0.376-1.479v-2.793h0.884v5.361h-0.723l-0.127-0.708h-0.044
			c-0.159,0.257-0.386,0.456-0.679,0.596s-0.633,0.21-1.021,0.21c-0.645,0-1.13-0.154-1.458-0.464
			c-0.326-0.31-0.49-0.804-0.49-1.484v-3.511H204.788z"/>
		<path fill="#4D4D4D" d="M213.116,71.307l-0.171-0.762h-0.039c-0.267,0.335-0.533,0.563-0.798,0.682
			c-0.266,0.118-0.601,0.178-1.004,0.178c-0.527,0-0.94-0.139-1.24-0.415s-0.449-0.667-0.449-1.172c0-1.087,0.857-1.657,2.573-1.709
			l0.908-0.034v-0.317c0-0.407-0.088-0.707-0.264-0.901c-0.176-0.193-0.457-0.29-0.845-0.29c-0.283,0-0.551,0.042-0.803,0.127
			c-0.253,0.085-0.489,0.179-0.711,0.283l-0.269-0.659c0.271-0.144,0.564-0.256,0.884-0.337s0.635-0.122,0.947-0.122
			c0.647,0,1.13,0.144,1.445,0.43s0.474,0.742,0.474,1.367v3.652H213.116z M211.305,70.696c0.491,0,0.878-0.133,1.159-0.397
			c0.282-0.266,0.423-0.643,0.423-1.131v-0.483l-0.791,0.034c-0.615,0.022-1.063,0.12-1.345,0.293
			c-0.282,0.173-0.423,0.444-0.423,0.815c0,0.28,0.085,0.495,0.257,0.645C210.755,70.621,210.995,70.696,211.305,70.696z"/>
		<path fill="#4D4D4D" d="M215.994,71.307h-0.879v-7.598h0.879V71.307z"/>
		<path fill="#4D4D4D" d="M217.313,64.495c0-0.195,0.05-0.337,0.148-0.425c0.1-0.088,0.223-0.132,0.369-0.132
			c0.137,0,0.256,0.044,0.359,0.132c0.102,0.088,0.153,0.229,0.153,0.425c0,0.192-0.052,0.334-0.153,0.425
			c-0.104,0.091-0.223,0.137-0.359,0.137c-0.146,0-0.27-0.046-0.369-0.137C217.362,64.829,217.313,64.688,217.313,64.495z
			 M218.26,71.307h-0.879v-5.361h0.879V71.307z"/>
		<path fill="#4D4D4D" d="M221.531,70.687c0.114,0,0.247-0.012,0.4-0.034s0.269-0.049,0.347-0.078v0.674
			c-0.081,0.036-0.207,0.07-0.379,0.105c-0.17,0.033-0.344,0.051-0.52,0.051c-1.048,0-1.572-0.552-1.572-1.655v-3.12h-0.757v-0.42
			l0.767-0.352l0.352-1.143h0.522v1.23h1.548v0.684h-1.548v3.096c0,0.31,0.074,0.547,0.222,0.713
			C221.062,70.604,221.268,70.687,221.531,70.687z"/>
		<path fill="#4D4D4D" d="M222.652,65.945h0.942l1.157,3.052c0.244,0.664,0.394,1.15,0.449,1.46h0.039
			c0.029-0.12,0.096-0.346,0.2-0.676c0.104-0.331,0.192-0.596,0.264-0.794l1.089-3.042h0.947l-2.31,6.104
			c-0.225,0.593-0.491,1.018-0.801,1.274s-0.691,0.386-1.147,0.386c-0.244,0-0.486-0.027-0.728-0.083v-0.698
			c0.163,0.039,0.358,0.059,0.586,0.059c0.28,0,0.518-0.077,0.713-0.232c0.195-0.154,0.354-0.393,0.479-0.715l0.278-0.713
			L222.652,65.945z"/>
		<path fill="#4D4D4D" d="M234.657,69.397c0,0.622-0.225,1.111-0.674,1.47s-1.074,0.537-1.875,0.537
			c-0.847,0-1.501-0.112-1.963-0.337v-0.859c0.303,0.13,0.634,0.232,0.994,0.308c0.359,0.075,0.695,0.112,1.008,0.112
			c0.534,0,0.936-0.103,1.206-0.308s0.405-0.486,0.405-0.845c0-0.237-0.049-0.433-0.146-0.586s-0.262-0.296-0.49-0.43
			c-0.23-0.134-0.577-0.285-1.043-0.454c-0.661-0.241-1.133-0.525-1.416-0.852c-0.283-0.328-0.425-0.75-0.425-1.268
			c0-0.557,0.209-0.999,0.628-1.328c0.418-0.329,0.969-0.493,1.652-0.493c0.713,0,1.369,0.134,1.968,0.4l-0.278,0.771
			c-0.612-0.254-1.182-0.381-1.709-0.381c-0.423,0-0.754,0.091-0.994,0.273c-0.238,0.183-0.358,0.438-0.358,0.767
			c0,0.234,0.046,0.429,0.14,0.584c0.092,0.154,0.242,0.295,0.449,0.422c0.206,0.127,0.531,0.271,0.974,0.435
			c0.53,0.195,0.926,0.385,1.187,0.569c0.261,0.184,0.452,0.395,0.576,0.635C234.596,68.779,234.657,69.065,234.657,69.397z"/>
		<path fill="#4D4D4D" d="M238.059,71.404c-0.804,0-1.435-0.243-1.892-0.73c-0.458-0.486-0.687-1.156-0.687-2.009
			c0-0.859,0.213-1.544,0.64-2.054c0.427-0.509,1.003-0.764,1.729-0.764c0.674,0,1.211,0.217,1.611,0.652
			c0.4,0.434,0.601,1.022,0.601,1.765v0.532h-3.672c0.017,0.608,0.171,1.071,0.464,1.387s0.708,0.474,1.245,0.474
			c0.286,0,0.559-0.025,0.815-0.075c0.257-0.051,0.559-0.149,0.903-0.296v0.771c-0.296,0.127-0.574,0.217-0.835,0.269
			S238.413,71.404,238.059,71.404z M237.839,66.565c-0.42,0-0.752,0.135-0.996,0.405s-0.389,0.646-0.435,1.128h2.729
			c-0.007-0.501-0.122-0.882-0.347-1.143S238.249,66.565,237.839,66.565z"/>
		<path fill="#4D4D4D" d="M243.665,65.848c0.237,0,0.447,0.02,0.63,0.059l-0.107,0.811c-0.198-0.046-0.393-0.068-0.581-0.068
			c-0.283,0-0.546,0.078-0.789,0.234c-0.242,0.156-0.432,0.372-0.568,0.646c-0.137,0.275-0.205,0.581-0.205,0.916v2.861h-0.879
			v-5.361h0.723l0.098,0.981h0.039c0.205-0.354,0.447-0.623,0.728-0.806S243.336,65.848,243.665,65.848z"/>
		<path fill="#4D4D4D" d="M246.674,71.307l-2.031-5.361h0.942l1.138,3.159c0.225,0.635,0.368,1.108,0.43,1.421h0.039
			c0.01-0.042,0.021-0.09,0.037-0.145c0.014-0.053,0.031-0.111,0.051-0.176c0.02-0.063,0.14-0.43,0.361-1.101l1.143-3.159h0.938
			l-2.036,5.361H246.674z"/>
		<path fill="#4D4D4D" d="M250.366,64.495c0-0.195,0.05-0.337,0.148-0.425c0.1-0.088,0.223-0.132,0.369-0.132
			c0.137,0,0.256,0.044,0.359,0.132c0.102,0.088,0.153,0.229,0.153,0.425c0,0.192-0.052,0.334-0.153,0.425
			c-0.104,0.091-0.223,0.137-0.359,0.137c-0.146,0-0.27-0.046-0.369-0.137C250.416,64.829,250.366,64.688,250.366,64.495z
			 M251.313,71.307h-0.879v-5.361h0.879V71.307z"/>
		<path fill="#4D4D4D" d="M254.875,71.404c-0.771,0-1.372-0.236-1.802-0.711c-0.43-0.473-0.645-1.152-0.645-2.038
			c0-0.898,0.218-1.591,0.651-2.077c0.436-0.487,1.055-0.73,1.858-0.73c0.261,0,0.519,0.027,0.774,0.08
			c0.255,0.055,0.466,0.123,0.632,0.208l-0.269,0.732c-0.452-0.169-0.838-0.254-1.157-0.254c-0.54,0-0.939,0.17-1.196,0.511
			c-0.257,0.34-0.386,0.847-0.386,1.521c0,0.647,0.129,1.144,0.386,1.487c0.257,0.343,0.638,0.515,1.143,0.515
			c0.472,0,0.936-0.104,1.392-0.313v0.781C255.886,71.309,255.425,71.404,254.875,71.404z"/>
		<path fill="#4D4D4D" d="M259.442,71.404c-0.804,0-1.435-0.243-1.892-0.73c-0.458-0.486-0.687-1.156-0.687-2.009
			c0-0.859,0.213-1.544,0.64-2.054c0.427-0.509,1.003-0.764,1.729-0.764c0.674,0,1.211,0.217,1.611,0.652
			c0.4,0.434,0.601,1.022,0.601,1.765v0.532h-3.672c0.017,0.608,0.171,1.071,0.464,1.387s0.708,0.474,1.245,0.474
			c0.286,0,0.559-0.025,0.815-0.075c0.257-0.051,0.559-0.149,0.903-0.296v0.771c-0.296,0.127-0.574,0.217-0.835,0.269
			S259.797,71.404,259.442,71.404z M259.223,66.565c-0.42,0-0.752,0.135-0.996,0.405s-0.389,0.646-0.435,1.128h2.729
			c-0.007-0.501-0.122-0.882-0.347-1.143S259.633,66.565,259.223,66.565z"/>
	</g>
	<g>
	</g>
	<g>
	</g>
	<g>
	</g>
	<g>
	</g>
	<g>
	</g>
	<g>
	</g>
	<g>
	</g>
	<g>
	</g>
	<g>
	</g>
	<g>
	</g>
	<g>
	</g>
	<g>
	</g>
	<g>
	</g>
	<g>
	</g>
	<g>
	</g>
</g>
</svg>
